<svg xmlns="http://www.w3.org/2000/svg" viewBox="0 0 512 512">
  <defs>
    <linearGradient id="grad" x1="0" y1="0" x2="1" y2="1">
      <stop offset="0%" stop-color="#3b82f6" />
      <stop offset="100%" stop-color="#8b5cf6" />
    </linearGradient>
  </defs>
  <rect width="512" height="512" rx="120" fill="url(#grad)" />
  <g fill="white" transform="translate(80, 130) scale(1.1)">
    <!-- Stylized C -->
    <path d="M100 220c-55.2 0-100-44.8-100-100s44.8-100 100-100 100 44.8 100 100h-35c0-35.9-29.1-65-65-65s-65 29.1-65 65 29.1 65 65 65v35z" />
    <!-- Stylized A -->
    <path d="M280 220l-15-50h-70l-15 50h-35l65-200h40l65 200h-35zm-50-160l-25 80h50l-25-80z" />
  </g>
  <!-- AI Sparkle -->
  <path d="M400 100l10 30l30 10l-30 10l-10 30l-10-30l-30-10l30-10z" fill="white" opacity="0.8" />
</svg>
